<svg width="29" height="24" viewBox="0 0 29 24" fill="none" xmlns="http://www.w3.org/2000/svg">
<path d="M8.91699 19.0833H11.7503V17.6666H13.167C13.9462 17.6666 14.5837 17.0291 14.5837 16.25V12C14.5837 11.2208 13.9462 10.5833 13.167 10.5833H8.91699V9.16663H14.5837V6.33329H11.7503V4.91663H8.91699V6.33329H7.50033C6.72116 6.33329 6.08366 6.97079 6.08366 7.74996V12C6.08366 12.7791 6.72116 13.4166 7.50033 13.4166H11.7503V14.8333H6.08366V17.6666H8.91699V19.0833ZM25.917 0.666626H3.25033C1.67783 0.666626 0.431159 1.92746 0.431159 3.49996L0.416992 20.5C0.416992 22.0725 1.67783 23.3333 3.25033 23.3333H25.917C27.4895 23.3333 28.7503 22.0725 28.7503 20.5V3.49996C28.7503 1.92746 27.4895 0.666626 25.917 0.666626ZM25.917 20.5H3.25033V3.49996H25.917V20.5ZM17.417 9.16663L20.2503 6.33329L23.0837 9.16663M23.0837 15.1875L20.2503 18.0208L17.417 15.1875" fill="#00354B"/>
</svg>
