<svg width="18" height="20" viewBox="0 0 18 20" fill="none" xmlns="http://www.w3.org/2000/svg">
<path d="M14.9401 14.7461C16.5156 13.1698 17.4007 11.0323 17.4007 8.80366C17.4007 6.575 16.5156 4.43756 14.9401 2.86126C14.1603 2.08087 13.2343 1.4618 12.2151 1.03943C11.1958 0.617056 10.1034 0.399658 9.00013 0.399658C7.89687 0.399658 6.80441 0.617056 5.7852 1.03943C4.76599 1.4618 3.83999 2.08087 3.06013 2.86126C1.48464 4.43756 0.599609 6.575 0.599609 8.80366C0.599609 11.0323 1.48464 13.1698 3.06013 14.7461L4.88533 16.5449L7.33693 18.9269L7.49653 19.0685C8.42653 19.8221 9.78853 19.7741 10.6645 18.9269L13.5865 16.0829L14.9401 14.7461ZM9.17533 5.62486C9.06267 5.5122 8.99937 5.35939 8.99937 5.20006C8.99937 5.04073 9.06267 4.88792 9.17533 4.77526C9.28799 4.6626 9.4408 4.5993 9.60013 4.5993C9.75946 4.5993 9.91227 4.6626 10.0249 4.77526L13.0249 7.77526C13.0808 7.83099 13.1251 7.8972 13.1554 7.9701C13.1856 8.04299 13.2012 8.12114 13.2012 8.20006C13.2012 8.27898 13.1856 8.35712 13.1554 8.43002C13.1251 8.50291 13.0808 8.56912 13.0249 8.62486L10.0249 11.6249C9.91227 11.7375 9.75946 11.8008 9.60013 11.8008C9.4408 11.8008 9.28799 11.7375 9.17533 11.6249C9.06267 11.5122 8.99937 11.3594 8.99937 11.2001C8.99937 11.0407 9.06267 10.8879 9.17533 10.7753L11.1517 8.80006H5.40013C5.241 8.80006 5.08839 8.73685 4.97587 8.62432C4.86335 8.5118 4.80013 8.35919 4.80013 8.20006C4.80013 8.04093 4.86335 7.88832 4.97587 7.77579C5.08839 7.66327 5.241 7.60006 5.40013 7.60006H11.1517L9.17533 5.62486Z" fill="#00354B"/>
</svg>
