<svg width="47" height="31" viewBox="0 0 47 31" fill="none" xmlns="http://www.w3.org/2000/svg">
<path d="M12.6244 22.0367C10.1978 22.0367 8.23123 24.0025 8.23123 26.4293C8.23123 28.8563 10.1978 30.8221 12.6244 30.8221C15.0518 30.8221 17.0179 28.8563 17.0179 26.4293C17.0179 24.0025 15.0518 22.0367 12.6244 22.0367ZM12.6244 28.339C11.5695 28.339 10.7147 27.4842 10.7147 26.4293C10.7147 25.3739 11.5695 24.5196 12.6244 24.5196C13.6793 24.5196 14.5347 25.3739 14.5347 26.4293C14.5347 27.4842 13.6793 28.339 12.6244 28.339ZM35.79 22.0367C33.3634 22.0367 31.397 24.0025 31.397 26.4293C31.397 28.8563 33.3634 30.8221 35.79 30.8221C38.2176 30.8221 40.1835 28.8563 40.1835 26.4293C40.1835 24.0025 38.2176 22.0367 35.79 22.0367ZM35.79 28.339C34.7352 28.339 33.8805 27.4842 33.8805 26.4293C33.8805 25.3739 34.7352 24.5196 35.79 24.5196C36.8451 24.5196 37.7005 25.3739 37.7005 26.4293C37.7005 27.4842 36.8451 28.339 35.79 28.339ZM17.5667 8.53893C17.5667 9.15449 17.063 9.65807 16.4475 9.65807H1.00379C0.388228 9.65807 -0.115234 9.15449 -0.115234 8.53893V7.86744C-0.115234 7.252 0.388351 6.74841 1.00379 6.74841H16.4475C17.0631 6.74841 17.5667 7.252 17.5667 7.86744V8.53893Z" fill="white"/>
<path d="M44.3996 15.0912C42.7888 14.6724 41.8671 14.4092 41.2345 13.1876L39.1195 8.90536C38.4867 7.68383 36.8434 6.68427 35.4681 6.68427H32.5752C32.5752 6.68427 32.1861 6.69239 32.1861 6.30078V2.7093C32.1861 1.31704 31.3982 0.177856 29.7222 0.177856H6.14604C3.7466 0.177856 2.60742 1.31716 2.60742 2.7093V4.96001C2.60742 4.96001 2.60742 5.62941 3.25531 5.62941H16.4487C17.6829 5.62941 18.687 6.63339 18.687 7.86758V8.53907C18.687 9.77327 17.6829 10.7772 16.4487 10.7772H3.25531C3.25531 10.7772 2.60742 10.7234 2.60742 11.4228V12.1968C2.60742 12.8124 3.45111 12.812 3.45111 12.812H12.3323C13.5665 12.812 14.5706 13.8161 14.5706 15.0502V15.7216C14.5706 16.9558 13.5665 17.9598 12.3323 17.9598H3.59124C3.59124 17.9598 2.60742 17.9416 2.60742 18.725V24.1635C2.60742 25.5556 3.7466 26.6949 5.13887 26.6949H6.53716C6.85428 26.6949 6.90099 26.5183 6.90099 26.4296C6.90099 23.2732 9.46919 20.7056 12.6257 20.7056C15.7824 20.7056 18.3505 23.2735 18.3505 26.4296C18.3505 26.5187 18.3251 26.6949 18.5677 26.6949H29.852C30.0758 26.6949 30.0667 26.5064 30.0667 26.4296C30.0667 23.2732 32.6347 20.7056 35.7913 20.7056C38.9479 20.7056 41.516 23.2735 41.516 26.4296C41.516 26.5187 41.5138 26.6949 41.6538 26.6949H44.4988C45.8748 26.6949 47.0004 25.5694 47.0004 24.1935V19.4411C47.0005 15.4388 45.7368 15.4388 44.3996 15.0912ZM39.6395 14.8686H32.5192C32.2251 14.8686 32.186 14.5822 32.186 14.5822V8.65092C32.186 8.65092 32.1694 8.42316 32.5471 8.42316H34.5788C35.8029 8.42316 37.2651 9.31258 37.8279 10.3995L39.71 14.2099C39.7836 14.3538 39.8688 14.4915 39.9647 14.6216C40.0316 14.711 39.9195 14.8686 39.6395 14.8686Z" fill="white"/>
<path d="M13.4508 15.7217C13.4508 16.3372 12.9472 16.8408 12.3318 16.8408H-1.88098C-2.49654 16.8408 -3 16.3372 -3 15.7217V15.0502C-3 14.4347 -2.49641 13.9312 -1.88098 13.9312H12.3318C12.9473 13.9312 13.4508 14.4347 13.4508 15.0502V15.7217Z" fill="white"/>
</svg>
