<svg width="40" height="37" viewBox="0 0 40 37" fill="none" xmlns="http://www.w3.org/2000/svg">
<path d="M40 16.3636C40 15.3992 39.6169 14.4743 38.9349 13.7923C38.253 13.1104 37.3281 12.7273 36.3636 12.7273H24.8727L26.6182 4.41818C26.6545 4.23636 26.6727 4.03636 26.6727 3.83636C26.6727 3.09091 26.3636 2.4 25.8727 1.90909L23.9455 0L11.9818 11.9636C11.3091 12.6364 10.9091 13.5455 10.9091 14.5455V32.7273C10.9091 33.6917 11.2922 34.6166 11.9742 35.2986C12.6561 35.9805 13.581 36.3636 14.5455 36.3636H30.9091C32.4182 36.3636 33.7091 35.4545 34.2545 34.1455L39.7455 21.3273C39.9091 20.9091 40 20.4727 40 20V16.3636ZM0 36.3636H7.27273V14.5455H0V36.3636Z" fill="white"/>
</svg>
