<svg width="13" height="16" viewBox="0 0 13 16" fill="none" xmlns="http://www.w3.org/2000/svg">
<path d="M11.4615 2.22239C9.73464 0.495532 6.92254 0.495532 5.19752 2.22239L0.412914 7.00333C0.38175 7.03449 0.365251 7.07665 0.365251 7.12065C0.365251 7.16465 0.38175 7.20681 0.412914 7.23798L1.08936 7.91442C1.12028 7.9452 1.16213 7.96249 1.20577 7.96249C1.2494 7.96249 1.29125 7.9452 1.32217 7.91442L6.10678 3.13348C6.70073 2.53953 7.49083 2.21322 8.33043 2.21322C9.17002 2.21322 9.96013 2.53953 10.5522 3.13348C11.1462 3.72743 11.4725 4.51753 11.4725 5.3553C11.4725 6.19489 11.1462 6.98316 10.5522 7.57711L5.67598 12.4515L4.88588 13.2416C4.14711 13.9804 2.94637 13.9804 2.2076 13.2416C1.85013 12.8842 1.65398 12.4094 1.65398 11.9034C1.65398 11.3975 1.85013 10.9227 2.2076 10.5652L7.04537 5.72927C7.16819 5.60828 7.32951 5.54045 7.50183 5.54045H7.50366C7.67598 5.54045 7.83547 5.60828 7.95646 5.72927C8.07928 5.85209 8.14528 6.01341 8.14528 6.18573C8.14528 6.35621 8.07745 6.51753 7.95646 6.63852L4.00228 10.589C3.97112 10.6202 3.95462 10.6624 3.95462 10.7064C3.95462 10.7504 3.97112 10.7925 4.00228 10.8237L4.67873 11.5001C4.70965 11.5309 4.7515 11.5482 4.79514 11.5482C4.83877 11.5482 4.88062 11.5309 4.91154 11.5001L8.86388 7.54778C9.22869 7.18298 9.4285 6.69902 9.4285 6.1839C9.4285 5.66877 9.22685 5.18298 8.86388 4.82001C8.11044 4.06657 6.88588 4.0684 6.13244 4.82001L5.66315 5.29114L1.29651 9.65594C1.00014 9.95057 0.765212 10.3011 0.605353 10.6872C0.445494 11.0733 0.363882 11.4874 0.365251 11.9053C0.365251 12.754 0.697057 13.5515 1.29651 14.1509C1.91796 14.7705 2.73189 15.0803 3.54582 15.0803C4.35976 15.0803 5.17369 14.7705 5.7933 14.1509L11.4615 8.48637C12.2956 7.65044 12.7576 6.5377 12.7576 5.3553C12.7594 4.17106 12.2974 3.05832 11.4615 2.22239Z" fill="#00354B"/>
</svg>
