<svg width="26" height="26" viewBox="0 0 26 26" fill="none" xmlns="http://www.w3.org/2000/svg">
<path d="M23.3066 25.4623L15.2246 17.3802C14.503 17.9575 13.6731 18.4145 12.735 18.7513C11.7969 19.088 10.7987 19.2564 9.74033 19.2564C7.11847 19.2564 4.89976 18.3481 3.08418 16.5316C1.26861 14.7151 0.360337 12.4964 0.359375 9.87546C0.359375 7.2536 1.26764 5.03489 3.08418 3.21931C4.90072 1.40374 7.11943 0.495469 9.74033 0.494507C12.3622 0.494507 14.5809 1.40278 16.3965 3.21931C18.212 5.03585 19.1203 7.25457 19.1213 9.87546C19.1213 10.9338 18.9529 11.9321 18.6162 12.8701C18.2794 13.8082 17.8224 14.6381 17.2451 15.3597L25.3632 23.4778C25.6278 23.7424 25.7601 24.0672 25.7601 24.452C25.7601 24.8369 25.6158 25.1736 25.3271 25.4623C25.0625 25.7269 24.7258 25.8592 24.3169 25.8592C23.908 25.8592 23.5712 25.7269 23.3066 25.4623ZM9.74033 16.37C11.5444 16.37 13.078 15.7383 14.3413 14.475C15.6046 13.2117 16.2358 11.6785 16.2348 9.87546C16.2348 8.07143 15.6032 6.53776 14.3399 5.27446C13.0766 4.01116 11.5434 3.37999 9.74033 3.38095C7.9363 3.38095 6.40263 4.0126 5.13933 5.27591C3.87603 6.53921 3.24486 8.07239 3.24582 9.87546C3.24582 11.6795 3.87747 13.2132 5.14077 14.4765C6.40408 15.7398 7.93726 16.3709 9.74033 16.37Z" fill="#00354B"/>
</svg>
