<svg width="24" height="26" viewBox="0 0 24 26" fill="none" xmlns="http://www.w3.org/2000/svg">
<path fill-rule="evenodd" clip-rule="evenodd" d="M12.0016 10.3C13.3542 10.3 14.6514 9.76266 15.6078 8.80622C16.5642 7.84979 17.1016 6.55258 17.1016 5.19998C17.1016 3.84737 16.5642 2.55017 15.6078 1.59373C14.6514 0.637296 13.3542 0.0999756 12.0016 0.0999756C10.649 0.0999756 9.35175 0.637296 8.39532 1.59373C7.43888 2.55017 6.90156 3.84737 6.90156 5.19998C6.90156 6.55258 7.43888 7.84979 8.39532 8.80622C9.35175 9.76266 10.649 10.3 12.0016 10.3ZM0.101563 25.6C0.101562 24.0372 0.409365 22.4898 1.0074 21.046C1.60543 19.6023 2.48197 18.2904 3.58699 17.1854C4.69201 16.0804 6.00386 15.2038 7.44763 14.6058C8.8914 14.0078 10.4388 13.7 12.0016 13.7C13.5643 13.7 15.1117 14.0078 16.5555 14.6058C17.9993 15.2038 19.3111 16.0804 20.4161 17.1854C21.5211 18.2904 22.3977 19.6023 22.9957 21.046C23.5938 22.4898 23.9016 24.0372 23.9016 25.6H0.101563Z" fill="#00354B"/>
</svg>
