<svg width="22" height="22" viewBox="0 0 22 22" fill="none" xmlns="http://www.w3.org/2000/svg">
<path d="M11.3731 15.4738H10.6231C10.2652 15.4749 9.9211 15.3358 9.66455 15.0862C9.408 14.8367 9.25939 14.4966 9.25057 14.1388L8.97307 4.16005C8.96854 3.97555 9.00116 3.79202 9.069 3.62038C9.13684 3.44874 9.23851 3.2925 9.36796 3.16095C9.4974 3.0294 9.65199 2.92524 9.82251 2.85465C9.99304 2.78406 10.176 2.74849 10.3606 2.75005H11.6356C11.8189 2.75049 12.0002 2.78755 12.169 2.85903C12.3378 2.93052 12.4906 3.035 12.6184 3.16634C12.7463 3.29768 12.8466 3.45324 12.9135 3.62388C12.9804 3.79452 13.0126 3.97681 13.0081 4.16005L12.7306 14.1388C12.7218 14.494 12.5753 14.8319 12.322 15.081C12.0686 15.3301 11.7284 15.471 11.3731 15.4738ZM10.3606 3.50005C10.2775 3.50013 10.1952 3.51675 10.1186 3.54894C10.042 3.58113 9.97254 3.62825 9.91432 3.68755C9.85649 3.74783 9.81114 3.81896 9.78089 3.89683C9.75065 3.9747 9.73609 4.05778 9.73807 4.1413L10.0156 14.1163C10.0185 14.2765 10.0834 14.4294 10.1967 14.5427C10.31 14.656 10.4629 14.7209 10.6231 14.7238H11.3731C11.5359 14.7248 11.6925 14.6616 11.8091 14.5479C11.9256 14.4342 11.9926 14.2791 11.9956 14.1163L12.2731 4.1413C12.2751 4.05778 12.2605 3.9747 12.2302 3.89683C12.2 3.81896 12.1547 3.74783 12.0968 3.68755C12.0368 3.62642 11.965 3.57824 11.8856 3.54599C11.8063 3.51374 11.7212 3.4981 11.6356 3.50005H10.3606ZM10.9981 19.25C10.7177 19.25 10.4437 19.1669 10.2106 19.0112C9.97744 18.8554 9.79576 18.634 9.68847 18.375C9.58119 18.116 9.55311 17.831 9.60781 17.556C9.6625 17.281 9.79751 17.0285 9.99575 16.8302C10.194 16.632 10.4466 16.497 10.7215 16.4423C10.9965 16.3876 11.2815 16.4157 11.5405 16.523C11.7995 16.6302 12.0209 16.8119 12.1767 17.045C12.3324 17.2781 12.4156 17.5522 12.4156 17.8326C12.4156 18.2085 12.2662 18.569 12.0004 18.8349C11.7346 19.1007 11.374 19.25 10.9981 19.25ZM10.9981 17.1688C10.8659 17.1688 10.7367 17.208 10.6268 17.2816C10.517 17.3551 10.4314 17.4595 10.381 17.5817C10.3306 17.7039 10.3176 17.8383 10.3437 17.9679C10.3697 18.0975 10.4337 18.2164 10.5274 18.3096C10.6211 18.4028 10.7404 18.4661 10.8702 18.4914C10.9999 18.5168 11.1342 18.503 11.2561 18.4519C11.378 18.4008 11.482 18.3147 11.5549 18.2044C11.6278 18.0941 11.6663 17.9647 11.6656 17.8326C11.6646 17.6562 11.5938 17.4873 11.4687 17.363C11.3437 17.2386 11.1745 17.1688 10.9981 17.1688Z" fill="#008CC9"/>
<path d="M11 21.5H3.76625C3.66679 21.5 3.57141 21.4605 3.50109 21.3902C3.43076 21.3198 3.39125 21.2245 3.39125 21.125C3.39125 21.0255 3.43076 20.9302 3.50109 20.8598C3.57141 20.7895 3.66679 20.75 3.76625 20.75H11C12.9284 20.75 14.8134 20.1782 16.4168 19.1068C18.0202 18.0355 19.2699 16.5127 20.0078 14.7312C20.7458 12.9496 20.9389 10.9892 20.5627 9.09787C20.1865 7.20656 19.2579 5.46928 17.8943 4.10571C16.5307 2.74215 14.7934 1.81355 12.9021 1.43735C11.0108 1.06114 9.05042 1.25422 7.26884 1.99218C5.48726 2.73013 3.96451 3.97982 2.89317 5.58319C1.82183 7.18657 1.25 9.07164 1.25 11V21.125C1.25 21.2245 1.21049 21.3198 1.14016 21.3902C1.06984 21.4605 0.974456 21.5 0.875 21.5C0.775544 21.5 0.680161 21.4605 0.609835 21.3902C0.539509 21.3198 0.5 21.2245 0.5 21.125V11C0.5 8.9233 1.11581 6.89323 2.26957 5.16652C3.42332 3.4398 5.0632 2.09399 6.98182 1.29927C8.90045 0.504549 11.0116 0.296614 13.0484 0.701759C15.0852 1.1069 16.9562 2.10693 18.4246 3.57538C19.8931 5.04383 20.8931 6.91476 21.2982 8.95156C21.7034 10.9884 21.4955 13.0996 20.7007 15.0182C19.906 16.9368 18.5602 18.5767 16.8335 19.7304C15.1068 20.8842 13.0767 21.5 11 21.5Z" fill="#008CC9"/>
</svg>
