<svg width="34" height="34" viewBox="0 0 34 34" fill="none" xmlns="http://www.w3.org/2000/svg">
<path d="M13.2 20C13.2 20.4509 13.0209 20.8833 12.7021 21.2021C12.3833 21.5209 11.9509 21.7 11.5 21.7C11.0491 21.7 10.6167 21.5209 10.2979 21.2021C9.97911 20.8833 9.8 20.4509 9.8 20C9.8 19.5491 9.97911 19.1167 10.2979 18.7979C10.6167 18.4791 11.0491 18.3 11.5 18.3C11.9509 18.3 12.3833 18.4791 12.7021 18.7979C13.0209 19.1167 13.2 19.5491 13.2 20ZM21.7 21.7C22.1509 21.7 22.5833 21.5209 22.9021 21.2021C23.2209 20.8833 23.4 20.4509 23.4 20C23.4 19.5491 23.2209 19.1167 22.9021 18.7979C22.5833 18.4791 22.1509 18.3 21.7 18.3C21.2491 18.3 20.8167 18.4791 20.4979 18.7979C20.1791 19.1167 20 19.5491 20 20C20 20.4509 20.1791 20.8833 20.4979 21.2021C20.8167 21.5209 21.2491 21.7 21.7 21.7ZM13.2 22.55C13.2 22.3246 13.2896 22.1084 13.449 21.949C13.6084 21.7896 13.8246 21.7 14.05 21.7H19.15C19.3754 21.7 19.5916 21.7896 19.751 21.949C19.9104 22.1084 20 22.3246 20 22.55C20 22.7754 19.9104 22.9916 19.751 23.151C19.5916 23.3104 19.3754 23.4 19.15 23.4H14.05C13.8246 23.4 13.6084 23.3104 13.449 23.151C13.2896 22.9916 13.2 22.7754 13.2 22.55ZM6.4 3C5.49826 3 4.63346 3.35821 3.99584 3.99584C3.35821 4.63346 3 5.49826 3 6.4V24.25C3 24.9263 3.26866 25.5749 3.74688 26.0531C4.2251 26.5313 4.8737 26.8 5.55 26.8H6.4V27.65C6.4 28.3263 6.66866 28.9749 7.14688 29.4531C7.6251 29.9313 8.2737 30.2 8.95 30.2H10.65C11.3263 30.2 11.9749 29.9313 12.4531 29.4531C12.9313 28.9749 13.2 28.3263 13.2 27.65V26.8H20V27.65C20 28.3263 20.2687 28.9749 20.7469 29.4531C21.2251 29.9313 21.8737 30.2 22.55 30.2H24.25C24.9263 30.2 25.5749 29.9313 26.0531 29.4531C26.5313 28.9749 26.8 28.3263 26.8 27.65V26.8H27.65C28.3263 26.8 28.9749 26.5313 29.4531 26.0531C29.9313 25.5749 30.2 24.9263 30.2 24.25V6.4C30.2 5.49826 29.8418 4.63346 29.2042 3.99584C28.5665 3.35821 27.7017 3 26.8 3H6.4ZM21.7 27.65V26.8H25.1V27.65C25.1 27.8754 25.0104 28.0916 24.851 28.251C24.6916 28.4104 24.4754 28.5 24.25 28.5H22.55C22.3246 28.5 22.1084 28.4104 21.949 28.251C21.7896 28.0916 21.7 27.8754 21.7 27.65ZM11.5 26.8V27.65C11.5 27.8754 11.4104 28.0916 11.251 28.251C11.0916 28.4104 10.8754 28.5 10.65 28.5H8.95C8.72457 28.5 8.50837 28.4104 8.34896 28.251C8.18955 28.0916 8.1 27.8754 8.1 27.65V26.8H11.5ZM4.7 6.4C4.7 5.94913 4.87911 5.51673 5.19792 5.19792C5.51673 4.87911 5.94913 4.7 6.4 4.7H26.8C27.2509 4.7 27.6833 4.87911 28.0021 5.19792C28.3209 5.51673 28.5 5.94913 28.5 6.4V24.25C28.5 24.4754 28.4104 24.6916 28.251 24.851C28.0916 25.0104 27.8754 25.1 27.65 25.1H26.8V16.1682C26.8 15.8214 26.7575 15.4746 26.6725 15.138L25.3975 10.0312C25.2594 9.47905 24.9405 8.98898 24.4917 8.63901C24.0428 8.28904 23.4898 8.0993 22.9206 8.1H10.2777C9.70912 8.10006 9.15687 8.29015 8.7087 8.64006C8.26054 8.98996 7.94218 9.47961 7.8042 10.0312L6.5275 15.138C6.44306 15.4749 6.40025 15.8209 6.4 16.1682V25.1H5.55C5.32457 25.1 5.10837 25.0104 4.94896 24.851C4.78955 24.6916 4.7 24.4754 4.7 24.25V6.4ZM8.1 25.1V16.6H25.1V25.1H8.1ZM8.338 14.9L9.4532 10.4443C9.49901 10.2606 9.60484 10.0975 9.75389 9.98076C9.90294 9.86405 10.0867 9.80043 10.276 9.8H22.9206C23.1102 9.80005 23.2943 9.8635 23.4437 9.98024C23.5931 10.097 23.6992 10.2603 23.7451 10.4443L24.862 14.9H8.338Z" fill="#00354B"/>
</svg>
