<svg width="32" height="32" viewBox="0 0 32 32" fill="none" xmlns="http://www.w3.org/2000/svg">
<rect x="1" y="1" width="30" height="30" rx="3" stroke="white" stroke-width="2"/>
<g clip-path="url(#clip0_308_1632)">
<path d="M7.97 4.18311C7.16335 4.18311 6.43 4.47645 5.88 5.02645C5.29335 5.61311 5 6.34641 5 7.11641C5 7.92306 5.33 8.65641 5.88 9.20641C6.43 9.75641 7.2 10.0864 7.93335 10.0498H8.0067C8.74004 10.0498 9.4367 9.75641 9.9867 9.20641C10.5367 8.65641 10.8667 7.92306 10.8667 7.11641C10.9033 6.34641 10.5733 5.61306 10.0233 5.06306C9.47335 4.47641 8.74 4.18311 7.97 4.18311ZM9.47335 8.69311C9.07 9.09645 8.52 9.35311 7.93335 9.31645C7.38335 9.31645 6.7967 9.09645 6.39335 8.69311C5.95335 8.28976 5.73335 7.70311 5.73335 7.11645C5.73335 6.5298 5.95335 5.9798 6.39335 5.5398C6.7967 5.13645 7.3467 4.91645 7.97 4.91645C8.52 4.91645 9.07 5.13645 9.47335 5.5398C9.91335 5.9798 10.1333 6.5298 10.1333 7.11645C10.1333 7.70311 9.91335 8.28976 9.47335 8.69311ZM9.4 10.7831H6.43C5.84335 10.7831 5.36665 11.2598 5.36665 11.8831V24.7165C5.36665 25.3031 5.88 25.8165 6.46665 25.8165H9.4C9.98665 25.8165 10.5 25.3031 10.5 24.7531V11.8831C10.5 11.2964 9.98665 10.7831 9.4 10.7831ZM9.76665 24.7531C9.76665 24.9365 9.5833 25.0831 9.4 25.0831H6.46665C6.2833 25.0831 6.1 24.8998 6.1 24.7165V11.8831C6.1 11.6998 6.24665 11.5165 6.43 11.5165H9.4C9.58335 11.5165 9.76665 11.6998 9.76665 11.8831V24.7531ZM21.8667 10.4164H21.0967C19.6667 10.4164 18.31 11.0398 17.43 12.0298V11.5164C17.43 11.1498 17.0633 10.7831 16.6967 10.7831H13.03C12.7 10.7831 12.2967 11.0764 12.2967 11.4797V25.1564C12.2967 25.5597 12.7 25.8164 13.03 25.8164H17.0633C17.3933 25.8164 17.7967 25.5597 17.7967 25.1564V17.2364C17.7967 16.0264 18.6767 15.073 19.8133 15.073C20.4 15.073 20.95 15.293 21.3533 15.6964C21.72 16.0264 21.8667 16.5397 21.8667 17.1997V25.0831C21.8667 25.4497 22.2333 25.8164 22.6 25.8164H26.2667C26.6333 25.8164 27 25.4498 27 25.0831V15.6231C27 12.6898 24.7633 10.4164 21.8667 10.4164ZM26.2667 25.0464L26.23 25.0831H22.6367L22.6 17.1998C22.6 16.3198 22.38 15.6598 21.9033 15.1831C21.3533 14.6331 20.62 14.3398 19.85 14.3398C18.31 14.3764 17.1 15.6231 17.1 17.2364V25.0831H13.0667V11.5164H16.6967L16.7333 11.5531V13.8631L17.7233 12.8731L17.76 12.8364C18.4933 11.8098 19.7766 11.1498 21.1333 11.1498H21.9033C24.36 11.1498 26.2667 13.1298 26.2667 15.6231V25.0464Z" fill="white"/>
</g>
<defs>
<clipPath id="clip0_308_1632">
<rect width="22" height="22" fill="white" transform="translate(5 4)"/>
</clipPath>
</defs>
</svg>
