<svg width="32" height="32" viewBox="0 0 32 32" fill="none" xmlns="http://www.w3.org/2000/svg">
<path d="M15.9999 8.03369C11.6071 8.03369 8.0332 11.6074 8.0332 16.0002C8.0332 20.3929 11.6071 23.9667 15.9999 23.9667C20.3928 23.9667 23.9666 20.3929 23.9666 16.0002C23.9666 11.6074 20.3928 8.03369 15.9999 8.03369ZM15.9999 22.0917C12.641 22.0917 9.9082 19.3591 9.9082 16.0002C9.9082 12.6413 12.641 9.90869 15.9999 9.90869C19.3589 9.90869 22.0916 12.6413 22.0916 16.0002C22.0916 19.3591 19.3589 22.0917 15.9999 22.0917Z" fill="white"/>
<path d="M23.5312 0H8.46875C3.79906 0 0 3.79906 0 8.46875V23.5312C0 28.2009 3.79906 32 8.46875 32H23.5312C28.2009 32 32 28.2009 32 23.5312V8.46875C32 3.79906 28.2009 0 23.5312 0ZM30.125 23.5312C30.125 27.1671 27.1671 30.125 23.5312 30.125H8.46875C4.83294 30.125 1.875 27.1671 1.875 23.5312V8.46875C1.875 4.83294 4.83294 1.875 8.46875 1.875H23.5312C27.1671 1.875 30.125 4.83294 30.125 8.46875V23.5312Z" fill="white"/>
<path d="M24.9121 6.1499C24.6652 6.1499 24.424 6.2499 24.2496 6.4249C24.0746 6.59928 23.9746 6.84053 23.9746 7.0874C23.9746 7.33428 24.0747 7.57615 24.2496 7.75053C24.424 7.9249 24.6652 8.0249 24.9121 8.0249C25.159 8.0249 25.4009 7.9249 25.5752 7.75053C25.7496 7.57615 25.8496 7.33428 25.8496 7.0874C25.8496 6.84115 25.7496 6.59928 25.5752 6.4249C25.4009 6.2499 25.159 6.1499 24.9121 6.1499Z" fill="white"/>
</svg>
