<svg width="32" height="32" viewBox="0 0 32 32" fill="none" xmlns="http://www.w3.org/2000/svg">
<path d="M1 4C1 2.34315 2.34315 1 4 1H28C29.6569 1 31 2.34315 31 4V28C31 29.6569 29.6569 31 28 31H4C2.34315 31 1 29.6569 1 28V4Z" stroke="white" stroke-width="2"/>
<path d="M25.6867 5C25.3374 5 24.9681 5.06008 24.5887 5.17868C24.5749 5.18299 24.5612 5.18782 24.5477 5.19304L3.8066 13.2256C3.76219 13.2427 3.71981 13.2648 3.68017 13.2912C3.61799 13.3327 3.07066 13.7169 3.00627 14.4297C2.95592 14.9859 3.20898 15.5371 3.75775 16.0674C4.9185 17.1918 7.58162 17.6753 8.63376 17.8272L10.7829 23.6608C10.7913 23.6835 10.8008 23.7056 10.8116 23.7272C10.9865 24.0768 11.4897 24.6686 12.2664 24.6686C12.783 24.6686 13.3045 24.409 13.8167 23.8969L15.7134 22.0002L20.815 25.6013C20.8197 25.6047 20.8245 25.6079 20.8294 25.6111C20.8977 25.6567 21.264 25.8841 21.763 25.8841C22.1577 25.8841 22.8962 25.7312 23.4084 24.7068C24.0766 23.3702 27.4767 8.7841 27.8621 7.12539C27.8734 7.07693 27.8791 7.0273 27.8791 6.97754C27.8792 5.83161 26.9571 5 25.6867 5ZM22.2402 24.1225C22.1363 24.3303 21.9693 24.5779 21.763 24.5779C21.6727 24.5779 21.5846 24.54 21.5494 24.5208L16.0171 20.6157C15.8914 20.527 15.7382 20.4855 15.5848 20.4986C15.4314 20.5117 15.2876 20.5786 15.1787 20.6875L12.893 22.9732C12.5319 23.3344 12.3221 23.3624 12.2664 23.3624C12.1368 23.3624 12.0263 23.213 11.9887 23.1557L9.72274 17.0052C9.68087 16.8916 9.6083 16.792 9.51311 16.7173C9.41793 16.6425 9.30387 16.5957 9.18364 16.582C8.23252 16.4737 5.56686 16.0015 4.66576 15.1287C4.32036 14.7949 4.30345 14.6033 4.30652 14.5525C4.31024 14.4913 4.34975 14.4373 4.38083 14.4038L24.998 6.41917C25.2438 6.34413 25.4754 6.30612 25.6866 6.30612C25.8871 6.30612 26.5254 6.35112 26.5704 6.91327C25.0695 13.3691 22.692 23.2188 22.2402 24.1225Z" fill="white"/>
<path d="M23.6349 7.71735L10.5736 15.2279C10.4394 15.305 10.337 15.4274 10.2846 15.5731C10.2322 15.7188 10.2333 15.8783 10.2877 16.0233L12.2468 21.2478C12.2909 21.3653 12.3678 21.4676 12.4684 21.5425C12.569 21.6174 12.6891 21.6618 12.8142 21.6702C12.9394 21.6787 13.0644 21.6509 13.1742 21.5903C13.284 21.5296 13.374 21.4386 13.4334 21.3281L15.6707 17.1732L24.4134 8.75389C24.5283 8.64332 24.5987 8.49457 24.6115 8.33566C24.6242 8.17676 24.5784 8.01868 24.4827 7.89122C24.3869 7.76376 24.2479 7.67572 24.0917 7.64369C23.9355 7.61166 23.773 7.63786 23.6349 7.71735ZM14.6911 16.3032C14.6423 16.3502 14.6012 16.4044 14.5691 16.464L12.965 19.443L11.7053 16.0838L19.6818 11.4971L14.6911 16.3032Z" fill="white"/>
</svg>
