<svg width="50" height="50" viewBox="0 0 50 50" fill="none" xmlns="http://www.w3.org/2000/svg">
<path d="M37.4994 27.0791H27.0827V37.4958C27.0827 38.0483 26.8632 38.5782 26.4725 38.9689C26.0818 39.3596 25.5519 39.5791 24.9993 39.5791C24.4468 39.5791 23.9169 39.3596 23.5262 38.9689C23.1355 38.5782 22.916 38.0483 22.916 37.4958V27.0791H12.4993C11.9468 27.0791 11.4169 26.8596 11.0262 26.4689C10.6355 26.0782 10.416 25.5483 10.416 24.9958C10.416 24.4433 10.6355 23.9134 11.0262 23.5227C11.4169 23.132 11.9468 22.9125 12.4993 22.9125H22.916V12.4958C22.916 11.9433 23.1355 11.4134 23.5262 11.0227C23.9169 10.632 24.4468 10.4125 24.9993 10.4125C25.5519 10.4125 26.0818 10.632 26.4725 11.0227C26.8632 11.4134 27.0827 11.9433 27.0827 12.4958V22.9125H37.4994C38.0519 22.9125 38.5818 23.132 38.9725 23.5227C39.3632 23.9134 39.5827 24.4433 39.5827 24.9958C39.5827 25.5483 39.3632 26.0782 38.9725 26.4689C38.5818 26.8596 38.0519 27.0791 37.4994 27.0791Z" fill="white"/>
</svg>
