<svg width="31" height="34" viewBox="0 0 31 34" fill="none" xmlns="http://www.w3.org/2000/svg">
<path d="M27.7823 9.16294L17.1573 3.31919C17.0004 3.23288 16.8242 3.18762 16.6452 3.18762C16.4661 3.18762 16.2899 3.23288 16.1331 3.31919L5.50805 9.16294C5.34147 9.25466 5.20255 9.38941 5.1058 9.55312C5.00905 9.71684 4.95801 9.90352 4.95801 10.0937C4.95801 10.2839 5.00905 10.4705 5.1058 10.6343C5.20255 10.798 5.34147 10.9327 5.50805 11.0244L15.5827 16.5654V27.9543L12.3569 26.1799L11.3327 28.0404L16.1331 30.6807C16.2899 30.7672 16.4661 30.8126 16.6452 30.8126C16.8243 30.8126 17.0005 30.7672 17.1573 30.6807L27.7823 24.8369C27.949 24.7453 28.0879 24.6105 28.1847 24.4468C28.2816 24.2831 28.3326 24.0964 28.3327 23.9062V10.0937C28.3326 9.90349 28.2816 9.71679 28.1847 9.55307C28.0879 9.38935 27.949 9.25462 27.7823 9.16294ZM16.6452 5.46332L25.0655 10.0937L16.6452 14.7241L8.22486 10.0937L16.6452 5.46332ZM26.2077 23.2783L17.7077 27.9533V16.5643L26.2077 11.8893V23.2783Z" fill="#00354B"/>
<path d="M7.08301 17H-1.41699V14.875H7.08301V17ZM9.20801 25.5H0.708008V23.375H9.20801V25.5ZM11.333 21.25H2.83301V19.125H11.333V21.25Z" fill="#00354B"/>
</svg>
