<svg width="24" height="24" viewBox="0 0 24 24" fill="none" xmlns="http://www.w3.org/2000/svg">
<path d="M22.1996 13.6966H13.6996V22.1966C13.6996 22.6474 13.5205 23.0798 13.2017 23.3986C12.8829 23.7174 12.4505 23.8966 11.9996 23.8966C11.5487 23.8966 11.1163 23.7174 10.7975 23.3986C10.4787 23.0798 10.2996 22.6474 10.2996 22.1966V13.6966H1.79961C1.34874 13.6966 0.91634 13.5175 0.597528 13.1986C0.278716 12.8798 0.0996094 12.4474 0.0996094 11.9966C0.0996094 11.5457 0.278716 11.1133 0.597528 10.7945C0.91634 10.4757 1.34874 10.2966 1.79961 10.2966H10.2996V1.79656C10.2996 1.34569 10.4787 0.913287 10.7975 0.594476C11.1163 0.275664 11.5487 0.0965576 11.9996 0.0965576C12.4505 0.0965576 12.8829 0.275664 13.2017 0.594476C13.5205 0.913287 13.6996 1.34569 13.6996 1.79656V10.2966H22.1996C22.6505 10.2966 23.0829 10.4757 23.4017 10.7945C23.7205 11.1133 23.8996 11.5457 23.8996 11.9966C23.8996 12.4474 23.7205 12.8798 23.4017 13.1986C23.0829 13.5175 22.6505 13.6966 22.1996 13.6966Z" fill="#00354B"/>
</svg>
