<svg width="34" height="34" viewBox="0 0 34 34" fill="none" xmlns="http://www.w3.org/2000/svg">
<path d="M13.5994 20.4C13.5994 20.8509 13.4203 21.2833 13.1015 21.6021C12.7827 21.9209 12.3503 22.1 11.8994 22.1C11.4485 22.1 11.0161 21.9209 10.6973 21.6021C10.3785 21.2833 10.1994 20.8509 10.1994 20.4C10.1994 19.9492 10.3785 19.5168 10.6973 19.1979C11.0161 18.8791 11.4485 18.7 11.8994 18.7C12.3503 18.7 12.7827 18.8791 13.1015 19.1979C13.4203 19.5168 13.5994 19.9492 13.5994 20.4ZM22.0994 22.1C22.5503 22.1 22.9827 21.9209 23.3015 21.6021C23.6203 21.2833 23.7994 20.8509 23.7994 20.4C23.7994 19.9492 23.6203 19.5168 23.3015 19.1979C22.9827 18.8791 22.5503 18.7 22.0994 18.7C21.6485 18.7 21.2161 18.8791 20.8973 19.1979C20.5785 19.5168 20.3994 19.9492 20.3994 20.4C20.3994 20.8509 20.5785 21.2833 20.8973 21.6021C21.2161 21.9209 21.6485 22.1 22.0994 22.1ZM13.5994 22.95C13.5994 22.7246 13.689 22.5084 13.8484 22.349C14.0078 22.1896 14.224 22.1 14.4494 22.1H19.5494C19.7748 22.1 19.9911 22.1896 20.1505 22.349C20.3099 22.5084 20.3994 22.7246 20.3994 22.95C20.3994 23.1755 20.3099 23.3917 20.1505 23.5511C19.9911 23.7105 19.7748 23.8 19.5494 23.8H14.4494C14.224 23.8 14.0078 23.7105 13.8484 23.5511C13.689 23.3917 13.5994 23.1755 13.5994 22.95ZM6.79941 3.40002C5.89768 3.40002 5.03287 3.75824 4.39525 4.39586C3.75763 5.03348 3.39941 5.89829 3.39941 6.80002V24.65C3.39941 25.3263 3.66807 25.9749 4.14629 26.4531C4.62451 26.9314 5.27311 27.2 5.94941 27.2H6.79941V28.05C6.79941 28.7263 7.06807 29.3749 7.54629 29.8531C8.02451 30.3314 8.67311 30.6 9.34941 30.6H11.0494C11.7257 30.6 12.3743 30.3314 12.8525 29.8531C13.3308 29.3749 13.5994 28.7263 13.5994 28.05V27.2H20.3994V28.05C20.3994 28.7263 20.6681 29.3749 21.1463 29.8531C21.6245 30.3314 22.2731 30.6 22.9494 30.6H24.6494C25.3257 30.6 25.9743 30.3314 26.4525 29.8531C26.9308 29.3749 27.1994 28.7263 27.1994 28.05V27.2H28.0494C28.7257 27.2 29.3743 26.9314 29.8525 26.4531C30.3308 25.9749 30.5994 25.3263 30.5994 24.65V6.80002C30.5994 5.89829 30.2412 5.03348 29.6036 4.39586C28.966 3.75824 28.1012 3.40002 27.1994 3.40002H6.79941ZM22.0994 28.05V27.2H25.4994V28.05C25.4994 28.2755 25.4099 28.4917 25.2505 28.6511C25.0911 28.8105 24.8748 28.9 24.6494 28.9H22.9494C22.724 28.9 22.5078 28.8105 22.3484 28.6511C22.189 28.4917 22.0994 28.2755 22.0994 28.05ZM11.8994 27.2V28.05C11.8994 28.2755 11.8099 28.4917 11.6505 28.6511C11.491 28.8105 11.2748 28.9 11.0494 28.9H9.34941C9.12398 28.9 8.90778 28.8105 8.74837 28.6511C8.58897 28.4917 8.49941 28.2755 8.49941 28.05V27.2H11.8994ZM5.09941 6.80002C5.09941 6.34916 5.27852 5.91675 5.59733 5.59794C5.91614 5.27913 6.34855 5.10002 6.79941 5.10002H27.1994C27.6503 5.10002 28.0827 5.27913 28.4015 5.59794C28.7203 5.91675 28.8994 6.34916 28.8994 6.80002V24.65C28.8994 24.8755 28.8099 25.0917 28.6505 25.2511C28.4911 25.4105 28.2748 25.5 28.0494 25.5H27.1994V16.5682C27.1994 16.2214 27.1569 15.8746 27.0719 15.538L25.7969 10.4312C25.6588 9.87907 25.3399 9.389 24.8911 9.03903C24.4422 8.68907 23.8892 8.49933 23.32 8.50002H10.6771C10.1085 8.50009 9.55628 8.69018 9.10812 9.04008C8.65996 9.38999 8.34159 9.87964 8.20361 10.4312L6.92691 15.538C6.84248 15.8749 6.79966 16.2209 6.79941 16.5682V25.5H5.94941C5.72398 25.5 5.50778 25.4105 5.34837 25.2511C5.18897 25.0917 5.09941 24.8755 5.09941 24.65V6.80002ZM8.49941 25.5V17H25.4994V25.5H8.49941ZM8.73741 15.3L9.85261 10.8443C9.89843 10.6606 10.0042 10.4975 10.1533 10.3808C10.3024 10.2641 10.4861 10.2005 10.6754 10.2H23.32C23.5096 10.2001 23.6938 10.2635 23.8432 10.3803C23.9926 10.497 24.0986 10.6604 24.1445 10.8443L25.2614 15.3H8.73741Z" fill="#00354B"/>
</svg>
