<svg width="130" height="100" viewBox="0 0 130 100" fill="none" xmlns="http://www.w3.org/2000/svg">
<path d="M105.629 81.5501C107.638 81.5501 109.602 82.1457 111.272 83.2617C112.942 84.3777 114.244 85.9639 115.013 87.8197C115.781 89.6755 115.982 91.7176 115.59 93.6877C115.199 95.6578 114.231 97.4675 112.811 98.8879C111.391 100.308 109.581 101.276 107.611 101.667C105.641 102.059 103.599 101.858 101.743 101.089C99.887 100.321 98.3008 99.019 97.1848 97.3488C96.0688 95.6786 95.4731 93.715 95.4731 91.7063C95.4764 89.0137 96.5474 86.4323 98.4514 84.5283C100.355 82.6244 102.937 81.5533 105.629 81.5501ZM105.629 97.8001C106.835 97.8001 108.013 97.4427 109.015 96.7731C110.017 96.1035 110.798 95.1518 111.259 94.0383C111.721 92.9248 111.841 91.6996 111.606 90.5175C111.371 89.3354 110.791 88.2496 109.938 87.3974C109.086 86.5452 108 85.9648 106.818 85.7297C105.636 85.4945 104.411 85.6152 103.297 86.0764C102.184 86.5377 101.232 87.3187 100.563 88.3208C99.893 89.3229 99.5356 90.5011 99.5356 91.7063C99.5356 93.3225 100.178 94.8725 101.32 96.0153C102.463 97.1581 104.013 97.8001 105.629 97.8001ZM22.3481 81.5501C24.3569 81.5501 26.3205 82.1457 27.9907 83.2617C29.6608 84.3777 30.9626 85.9639 31.7313 87.8197C32.5 89.6755 32.7011 91.7176 32.3092 93.6877C31.9174 95.6578 30.9501 97.4675 29.5297 98.8879C28.1093 100.308 26.2997 101.276 24.3295 101.667C22.3594 102.059 20.3173 101.858 18.4615 101.089C16.6057 100.321 15.0195 99.019 13.9035 97.3488C12.7875 95.6786 12.1919 93.715 12.1919 91.7063C12.1951 89.0137 13.2662 86.4323 15.1702 84.5283C17.0741 82.6244 19.6555 81.5533 22.3481 81.5501ZM22.3481 97.8001C23.5534 97.8001 24.7315 97.4427 25.7336 96.7731C26.7358 96.1035 27.5168 95.1518 27.978 94.0383C28.4393 92.9248 28.5599 91.6996 28.3248 90.5175C28.0897 89.3354 27.5093 88.2496 26.6571 87.3974C25.8048 86.5452 24.719 85.9648 23.537 85.7297C22.3549 85.4945 21.1297 85.6152 20.0162 86.0764C18.9027 86.5377 17.951 87.3187 17.2814 88.3208C16.6118 89.3229 16.2544 90.5011 16.2544 91.7063C16.2544 93.3225 16.8964 94.8725 18.0392 96.0153C19.182 97.1581 20.732 97.8001 22.3481 97.8001ZM6.8497 47.9735C7.35888 47.0688 8.09925 46.3156 8.99507 45.791C9.89089 45.2663 10.91 44.9891 11.9481 44.9876H71.3419C71.6985 44.9913 72.0541 45.0273 72.4042 45.0952C72.0978 43.7681 71.3976 42.5645 70.3953 41.6421C69.998 41.3194 69.5377 41.0831 69.0438 40.9485C68.5499 40.8138 68.0334 40.7837 67.5272 40.8601C67.2282 40.9374 66.9154 40.9443 66.6133 40.8801C66.3112 40.816 66.0282 40.6825 65.7864 40.4904C65.5436 40.301 65.347 40.0588 65.2115 39.7822C65.076 39.5056 65.0052 39.2018 65.0044 38.8938V28.7376C65.0044 28.1988 65.2184 27.6822 65.5993 27.3013C65.9803 26.9203 66.4969 26.7063 67.0356 26.7063C69.0848 26.6293 71.1263 26.997 73.0198 27.7842C74.9133 28.5714 76.6138 29.7594 78.0044 31.2665C81.192 35.2763 83.021 40.1963 83.2267 45.3146C83.8205 45.1066 84.4441 44.9962 85.0731 44.9876H100.247C100.703 44.993 101.157 45.0537 101.599 45.1684C102.572 45.3983 103.469 45.8739 104.204 46.5496C104.94 47.2253 105.49 48.0786 105.802 49.0277C106.097 49.7468 107.153 57.6666 107.153 57.6666C107.22 58.0938 107.437 58.4833 107.764 58.7659C108.091 59.0486 108.508 59.206 108.94 59.2104H118.061C119.611 59.2109 121.098 59.8269 122.195 60.923C123.292 62.0191 123.909 63.5057 123.911 65.0563V87.8876C123.91 89.4389 123.294 90.9266 122.197 92.0236C121.1 93.1205 119.612 93.737 118.061 93.7376H117.634C117.878 92.3944 117.878 91.0183 117.634 89.6751C117.157 86.8364 115.689 84.2588 113.491 82.3998C111.293 80.5408 108.508 79.5208 105.629 79.5208C102.751 79.5208 99.9655 80.5408 97.7677 82.3998C95.57 84.2588 94.1021 86.8364 93.6247 89.6751C93.3809 91.0183 93.3809 92.3944 93.6247 93.7376H70.3872C70.123 94.3472 69.7514 94.9045 69.2903 95.3829C68.1846 96.6604 66.6698 97.5148 65.0044 97.8001C64.6794 97.861 40.9422 97.8509 40.6294 97.7899C39.4372 97.6598 38.301 97.215 37.3373 96.5011C36.3735 95.7872 35.6169 94.83 35.145 93.7274H34.3447C34.4699 93.061 34.5338 92.3844 34.5356 91.7063C34.5375 88.7171 33.4406 85.8314 31.4537 83.598C29.4667 81.3647 26.7283 79.9395 23.7591 79.5934C20.7899 79.2473 17.7971 80.0045 15.3498 81.7211C12.9025 83.4376 11.1714 85.9936 10.4856 88.9032C10.2728 89.8225 10.1637 90.7627 10.1606 91.7063C10.1559 92.2984 10.2034 92.8898 10.3028 93.4735V93.4938C9.55233 93.2822 8.85324 92.9188 8.2488 92.4262C7.64436 91.9336 7.14744 91.3221 6.78877 90.6298C6.29813 89.8018 6.05823 88.8492 6.09814 87.8876V50.8376C6.099 49.8342 6.3578 48.848 6.8497 47.9735ZM71.3419 49.0501H64.4153C61.797 51.9439 59.8727 55.3964 58.7888 59.1454C58.4003 60.314 57.7389 61.3733 56.8593 62.2352C55.9797 63.0972 54.9073 63.737 53.731 64.1016C52.9513 64.3598 52.135 64.4901 51.3138 64.4876C49.6734 64.4792 48.0763 63.961 46.7435 63.0048C41.6917 59.7621 36.3132 57.0592 30.6966 54.9407C24.0496 52.7836 17.142 51.5333 10.1606 51.2235V61.2579C31.7528 61.5423 45.3622 66.5188 53.0403 70.7438C53.9704 71.2377 55.0571 71.3471 56.0669 71.0485C56.9856 70.7571 57.7522 70.1147 58.1997 69.261C62.0794 61.5829 70.0622 56.9719 73.1294 55.4282V50.7929C73.1152 50.3274 72.9209 49.8857 72.5875 49.5606C72.2541 49.2355 71.8076 49.0525 71.3419 49.0501ZM99.5356 51.7516H89.3794V58.536H99.5356V51.7516ZM117.228 79.5188H119.848V75.4563H117.228C116.689 75.4563 116.172 75.6703 115.792 76.0513C115.411 76.4322 115.197 76.9488 115.197 77.4876C115.197 78.0263 115.411 78.5429 115.792 78.9239C116.172 79.3048 116.689 79.5188 117.228 79.5188ZM79.2231 51.0813C79.2536 47.9796 79.2435 39.5459 74.9941 33.9985C74.259 33.1178 73.3567 32.3913 72.3394 31.8611C71.3221 31.3308 70.2099 31.0072 69.0669 30.909V36.8219C70.4464 36.996 71.7525 37.5423 72.845 38.4023C75.6725 40.6102 77.1696 44.5123 77.1817 50.7299V89.6751H79.2231V51.0813ZM41.645 93.7376H54.8481V91.7063C54.8481 91.1676 55.0621 90.6509 55.4431 90.27C55.824 89.8891 56.3407 89.6751 56.8794 89.6751C57.4181 89.6751 57.9348 89.8891 58.3157 90.27C58.6966 90.6509 58.9106 91.1676 58.9106 91.7063V93.7376H63.9888C64.7969 93.7376 65.5718 93.4166 66.1432 92.8452C66.7146 92.2738 67.0356 91.4988 67.0356 90.6907C67.0356 89.8826 66.7146 89.1076 66.1432 88.5362C65.5718 87.9648 64.7969 87.6438 63.9888 87.6438H48.7544V89.6751C48.7544 90.2138 48.5404 90.7304 48.1595 91.1114C47.7785 91.4923 47.2619 91.7063 46.7231 91.7063C46.1844 91.7063 45.6678 91.4923 45.2868 91.1114C44.9059 90.7304 44.6919 90.2138 44.6919 89.6751V87.6438H41.645C40.8369 87.6438 40.062 87.9648 39.4906 88.5362C38.9192 89.1076 38.5981 89.8826 38.5981 90.6907C38.5981 91.4988 38.9192 92.2738 39.4906 92.8452C40.062 93.4166 40.8369 93.7376 41.645 93.7376Z" fill="#00354B"/>
</svg>
