<svg width="82" height="96" viewBox="0 0 82 96" fill="none" xmlns="http://www.w3.org/2000/svg">
<path d="M21.6295 31.3706C21.9768 32.968 22.5093 34.0022 23.1305 34.6465C24.6084 44.9336 33.8421 53.7004 41.2583 53.3338C50.6927 52.8708 57.3796 42.7033 58.8806 34.6465C59.5019 34.006 60.1 32.6362 60.4588 31.0272C60.8601 29.1789 61.2923 26.393 60.181 24.919C59.998 24.7365 59.8101 24.559 59.6176 24.3865C60.6788 20.5587 63.0094 13.729 57.206 7.5899C54.0612 4.26377 49.6933 2.59299 45.7459 1.27334C34.0929 -2.62001 25.8663 2.83994 22.0694 11.9193C21.7954 12.5637 20.0243 16.6422 22.1697 24.3865C21.9547 24.5299 21.7666 24.7102 21.6141 24.919C20.4989 26.3891 21.2244 29.5223 21.6295 31.3706Z" fill="#00354B"/>
<path d="M81.8974 87.9457C81.5733 80.8652 81.172 69.6443 74.9866 60.4646C74.9866 60.4646 73.2232 58.0607 69.0405 56.4632C69.0405 56.4632 59.9573 53.6966 55.7746 50.7062L53.8645 52.0142L54.0768 64.4313L42.5983 95.1402L41.9998 95.1394L41.201 95.1384L39.9998 95.1368L39.4308 95.1361L27.9346 64.4313C27.9346 64.4313 28.1468 52.0528 28.143 52.0142C28.17 52.1184 26.2291 50.7062 26.2291 50.7062C22.0541 53.6966 12.967 56.4632 12.967 56.4632C8.78427 58.0607 7.02088 60.4646 7.02088 60.4646C0.839374 69.6443 0.43036 80.8652 0.106235 87.9457C-0.117564 92.8385 0.908829 94.6636 2.19761 95.1845C11.9998 95.0456 57.4998 95.1845 79.8022 95.1845C81.0987 94.6674 82.1173 92.8385 81.8974 87.9457Z" fill="#00354B"/>
<path d="M41.4128 57.2889L40.8958 57.3005C39.2289 57.3005 37.5465 56.9763 35.895 56.4053L40.4405 63.3624L36.3619 67.2982L40.5601 92.7921C40.5796 92.8965 40.635 92.9909 40.7167 93.0588C40.7985 93.1267 40.9014 93.1639 41.0077 93.1639C41.114 93.1639 41.2169 93.1267 41.2986 93.0588C41.3804 92.9909 41.4358 92.8965 41.4553 92.7921L45.6535 67.2982L41.571 63.3624L46.0509 56.5095C44.5885 56.9378 43.0412 57.2233 41.4128 57.2889Z" fill="#00354B"/>
</svg>
