<svg width="95" height="92" viewBox="0 0 95 92" fill="none" xmlns="http://www.w3.org/2000/svg">
<path d="M40.9407 52.8709C40.3546 52.4894 37.6373 50.9219 36.9876 50.5334L28.9954 53.2662C26.7484 54.0406 24.799 55.4966 23.4188 57.4314C22.0385 59.3662 21.2963 61.6833 21.2954 64.06V74.9397C21.2954 75.885 22.0688 76.6584 23.0142 76.6584H41.4563C41.6265 74.7472 43.3659 56.8034 43.5876 54.435L43.4329 54.3319L40.9407 52.8709ZM87.4157 44.7584L79.4235 42.0084L72.8235 45.91C73.4337 52.3295 74.3326 61.6881 74.9376 68.1334C75.6973 68.13 92.0392 68.1351 93.3798 68.1334C94.3423 68.1334 95.0985 67.36 95.0985 66.4147V55.535C95.0985 50.6709 92.0048 46.3397 87.4157 44.7584Z" fill="#00354B"/>
<path d="M68.1485 47.8177L67.925 50.2927C68.6125 50.5506 69.2657 50.8771 69.8844 51.2381L69.5579 47.8177C69.111 48.024 68.5954 48.024 68.1485 47.8177Z" fill="#00354B"/>
<path d="M65.3297 25.5085C68.9426 28.1244 69.6301 34.0592 66.6188 37.4194C66.1032 38.0897 65.4672 38.6741 64.7454 39.1553C64.5855 39.9288 64.3621 40.6919 64.0922 41.4413L68.8532 44.26L77.0516 39.4131V38.4678C78.6967 37.3036 80.0738 35.8011 81.0906 34.061C82.1074 32.3209 82.7403 30.3835 82.9469 28.3788C87.4174 26.9831 87.5876 20.3161 83.0329 18.8225C83.1669 16.0089 83.7427 12.702 83.7547 10.0397C83.8768 6.49736 81.1113 0.834079 76.6391 1.20533C69.4926 1.4047 60.3574 -3.71717 57.7672 6.13814C57.4922 6.20689 57.2344 6.29283 56.9938 6.39595C65.8282 8.02877 66.6721 18.257 65.3297 25.5085ZM66.1032 53.2663L58.1282 50.5163C56.2685 51.6214 53.3294 53.3694 51.511 54.435C52.1315 60.6277 53.0544 70.5517 53.6594 76.6584H72.0844C73.0297 76.6584 73.8032 75.885 73.8032 74.9397V64.06C73.8032 59.196 70.7094 54.8475 66.1032 53.2663ZM60.2422 47.6288L64.5735 49.1069C64.6491 48.4658 64.8176 46.5786 64.8829 45.91L62.5969 44.5522C61.9266 45.6522 61.136 46.7006 60.2422 47.6288Z" fill="#00354B"/>
<path d="M48.2453 56.3256C48.0298 56.4357 47.7912 56.4931 47.5492 56.4931C47.3072 56.4931 47.0686 56.4357 46.8531 56.3256C46.3168 61.9132 45.4145 71.1773 44.9109 76.6584H50.2046L48.2453 56.3256Z" fill="#00354B"/>
<path d="M36.4719 14.6632C30.5371 16.4867 32.9141 22.9458 33.2063 27.3991C28.9025 29.0233 28.9747 35.5185 33.4641 36.9038C33.6711 38.9065 34.3023 40.8421 35.3159 42.5818C36.3295 44.3214 37.702 45.8252 39.3422 46.9928V47.921C42.0763 49.5499 44.8148 51.1713 47.5579 52.785C50.0363 51.3052 53.2675 49.4077 55.7563 47.9382V46.9928C57.4014 45.8286 58.7785 44.3261 59.7953 42.586C60.8121 40.8459 61.445 38.9085 61.6516 36.9038C66.1186 35.5855 66.2046 28.7432 61.7375 27.3475C61.8785 24.5288 62.4285 21.2442 62.4422 18.5647C62.5711 15.0138 59.816 9.36253 55.3438 9.71316C48.0168 10.0827 39.3921 4.54659 36.4719 14.6632ZM30.2157 45.91L30.525 49.1069L34.8735 47.6288C33.975 46.6954 33.1851 45.6633 32.5188 44.5522L30.2157 45.91Z" fill="#00354B"/>
<path d="M12.1688 28.3787C12.3758 30.3814 13.0071 32.3171 14.0206 34.0567C15.0342 35.7964 16.4068 37.3001 18.047 38.4678V39.4131L24.9048 43.4694C24.922 43.4694 24.922 43.4694 24.9392 43.4865L26.2626 44.26C27.1323 43.7444 30.0971 41.993 31.0235 41.4412C30.7415 40.7109 30.523 39.9576 30.3704 39.1897C29.6313 38.7084 28.9782 38.1069 28.4454 37.4365C25.5201 34.1365 26.1577 28.365 29.5798 25.6975C29.3426 22.2239 28.0707 20.6237 30.061 15.7975C30.8413 14.2179 32.1768 12.8103 33.7735 12.0162C35.1056 8.91044 37.0753 6.58841 40.1157 5.53654C39.0999 3.11482 36.7556 1.00075 34.0313 1.20529C26.6699 1.53013 18.1312 -3.96987 15.1767 6.1381C13.8704 6.44747 13.0282 7.15216 12.5126 7.77091C9.91556 11.2187 11.7976 15.067 11.911 18.874C7.60728 20.5034 7.67775 26.9762 12.1688 28.3787Z" fill="#00354B"/>
<path d="M25.5578 47.8177L25.2312 51.2381C25.85 50.8771 26.5031 50.5506 27.1906 50.2927L26.95 47.8177C26.732 47.9197 26.4944 47.9725 26.2539 47.9725C26.0133 47.9725 25.7757 47.9197 25.5578 47.8177Z" fill="#00354B"/>
<path d="M17.8578 64.06C17.8578 60.3991 19.1984 56.9787 21.4844 54.3662L22.2922 45.91L15.6922 42.0084L7.7 44.7584C5.45398 45.5289 3.50465 46.9816 2.1242 48.9136C0.743761 50.8456 0.00112531 53.1605 0 55.535V66.4147C0 67.36 0.773437 68.1334 1.71875 68.1334H17.8578C17.8681 67.6505 17.8509 64.4433 17.8578 64.06Z" fill="#00354B"/>
</svg>
