<svg width="20" height="20" viewBox="0 0 20 20" fill="none" xmlns="http://www.w3.org/2000/svg">
<path d="M18.5007 11.4138H11.4173V18.4971C11.4173 18.8728 11.2681 19.2332 11.0024 19.4988C10.7367 19.7645 10.3764 19.9138 10.0007 19.9138C9.62493 19.9138 9.26459 19.7645 8.99892 19.4988C8.73324 19.2332 8.58398 18.8728 8.58398 18.4971V11.4138H1.50065C1.12493 11.4138 0.764593 11.2645 0.498917 10.9988C0.23324 10.7332 0.0839844 10.3728 0.0839844 9.99711C0.0839844 9.62139 0.23324 9.26105 0.498917 8.99538C0.764593 8.7297 1.12493 8.58044 1.50065 8.58044H8.58398V1.49711C8.58398 1.12139 8.73324 0.761052 8.99892 0.495376C9.26459 0.229699 9.62493 0.0804443 10.0007 0.0804443C10.3764 0.0804443 10.7367 0.229699 11.0024 0.495376C11.2681 0.761052 11.4173 1.12139 11.4173 1.49711V8.58044H18.5007C18.8764 8.58044 19.2367 8.7297 19.5024 8.99538C19.7681 9.26105 19.9173 9.62139 19.9173 9.99711C19.9173 10.3728 19.7681 10.7332 19.5024 10.9988C19.2367 11.2645 18.8764 11.4138 18.5007 11.4138Z" fill="#00354B"/>
</svg>
