<svg width="94" height="95" viewBox="0 0 94 95" fill="none" xmlns="http://www.w3.org/2000/svg">
<g clip-path="url(#clip0_134_6161)">
<path d="M25.2502 63.0733C20.397 63.0733 16.4639 67.0049 16.4639 71.8586C16.4639 76.7125 20.397 80.6441 25.2502 80.6441C30.1051 80.6441 34.0372 76.7125 34.0372 71.8586C34.0372 67.0049 30.1051 63.0733 25.2502 63.0733ZM25.2502 75.6781C23.1405 75.6781 21.4309 73.9683 21.4309 71.8586C21.4309 69.7479 23.1405 68.0391 25.2502 68.0391C27.3602 68.0391 29.0709 69.7479 29.0709 71.8586C29.0709 73.9683 27.3602 75.6781 25.2502 75.6781ZM71.5815 63.0733C66.7283 63.0733 62.7955 67.0049 62.7955 71.8586C62.7955 76.7125 66.7283 80.6441 71.5815 80.6441C76.4367 80.6441 80.3685 76.7125 80.3685 71.8586C80.3685 67.0049 76.4367 63.0733 71.5815 63.0733ZM71.5815 75.6781C69.4718 75.6781 67.7625 73.9683 67.7625 71.8586C67.7625 69.7479 69.4718 68.0391 71.5815 68.0391C73.6917 68.0391 75.4025 69.7479 75.4025 71.8586C75.4025 73.9683 73.6917 75.6781 71.5815 75.6781ZM35.1348 36.0779C35.1348 37.309 34.1274 38.3161 32.8965 38.3161H2.00904C0.777921 38.3161 -0.229004 37.309 -0.229004 36.0779V34.7349C-0.229004 33.504 0.778167 32.4968 2.00904 32.4968H32.8965C34.1276 32.4968 35.1348 33.504 35.1348 34.7349V36.0779Z" fill="#00354B"/>
<path d="M88.7982 49.1824C85.5766 48.3449 83.7331 47.8183 82.4681 45.3752L78.2381 36.8107C76.9725 34.3677 73.6858 32.3685 70.9352 32.3685H65.1495C65.1495 32.3685 64.3712 32.3848 64.3712 31.6016V24.4186C64.3712 21.6341 62.7954 19.3557 59.4435 19.3557H12.2911C7.49223 19.3557 5.21387 21.6343 5.21387 24.4186V28.92C5.21387 28.92 5.21387 30.2588 6.50964 30.2588H32.8964C35.3648 30.2588 37.373 32.2668 37.373 34.7352V36.0781C37.373 38.5465 35.3648 40.5545 32.8964 40.5545H6.50964C6.50964 40.5545 5.21387 40.4468 5.21387 41.8456V43.3936C5.21387 44.6247 6.90125 44.624 6.90125 44.624H24.6635C27.1319 44.624 29.1401 46.6322 29.1401 49.1003V50.4433C29.1401 52.9117 27.1319 54.9196 24.6635 54.9196H7.1815C7.1815 54.9196 5.21387 54.8833 5.21387 56.4499V67.327C5.21387 70.1113 7.49223 72.3899 10.2768 72.3899H13.0733C13.7076 72.3899 13.801 72.0366 13.801 71.8591C13.801 65.5464 18.9374 60.4113 25.2504 60.4113C31.5638 60.4113 36.6999 65.5469 36.6999 71.8591C36.6999 72.0374 36.6493 72.3899 37.1343 72.3899H59.7031C60.1505 72.3899 60.1323 72.0128 60.1323 71.8591C60.1323 65.5464 65.2685 60.4113 71.5817 60.4113C77.8949 60.4113 83.031 65.5469 83.031 71.8591C83.031 72.0374 83.0266 72.3899 83.3066 72.3899H88.9966C91.7487 72.3899 93.9998 70.1388 93.9998 67.387V57.8822C94 49.8776 91.4726 49.8776 88.7982 49.1824ZM79.2779 48.7372H65.0374C64.4491 48.7372 64.371 48.1644 64.371 48.1644V36.3018C64.371 36.3018 64.3378 35.8463 65.0932 35.8463H69.1566C71.6048 35.8463 74.5292 37.6252 75.6549 39.799L79.419 47.4198C79.5662 47.7076 79.7366 47.9829 79.9284 48.2431C80.0621 48.4221 79.8379 48.7372 79.2779 48.7372Z" fill="#00354B"/>
<path d="M26.9016 50.4433C26.9016 51.6745 25.8944 52.6816 24.6635 52.6816H-3.76195C-4.99307 52.6816 -6 51.6745 -6 50.4433V49.1004C-6 47.8695 -4.99283 46.8623 -3.76195 46.8623H24.6635C25.8946 46.8623 26.9016 47.8695 26.9016 49.1004V50.4433Z" fill="#00354B"/>
</g>
<defs>
<clipPath id="clip0_134_6161">
<rect width="100" height="100" fill="white" transform="translate(-6)"/>
</clipPath>
</defs>
</svg>
