<svg width="48" height="44" viewBox="0 0 48 44" fill="none" xmlns="http://www.w3.org/2000/svg">
<path d="M48 19.6364C48 18.4791 47.5403 17.3691 46.7219 16.5508C45.9036 15.7325 44.7937 15.2727 43.6364 15.2727H29.8473L31.9418 5.30182C31.9855 5.08364 32.0073 4.84364 32.0073 4.60364C32.0073 3.70909 31.6364 2.88 31.0473 2.29091L28.7345 0L14.3782 14.3564C13.5709 15.1636 13.0909 16.2545 13.0909 17.4545V39.2727C13.0909 40.43 13.5506 41.5399 14.369 42.3583C15.1873 43.1766 16.2972 43.6364 17.4545 43.6364H37.0909C38.9018 43.6364 40.4509 42.5455 41.1055 40.9745L47.6945 25.5927C47.8909 25.0909 48 24.5673 48 24V19.6364ZM0 43.6364H8.72727V17.4545H0V43.6364Z" fill="#00354B"/>
</svg>
