<svg width="32" height="32" viewBox="0 0 32 32" fill="none" xmlns="http://www.w3.org/2000/svg">
<rect x="1" y="1" width="30" height="30" rx="3" stroke="white" stroke-width="2"/>
<path d="M5.43283 22.9621C7.48366 24.2585 9.86144 24.9438 12.2877 24.9375C15.8718 24.9375 19.1563 23.5607 21.5368 21.0609C23.8148 18.6684 25.0678 15.4537 25.0055 12.1913C25.869 11.4524 26.8847 10.0417 26.8847 8.66669C26.8847 8.54553 26.8528 8.4265 26.792 8.32167C26.7313 8.21683 26.6439 8.12991 26.5388 8.0697C26.4336 8.0095 26.3144 7.97815 26.1933 7.97884C26.0721 7.97953 25.9533 8.01222 25.8488 8.07361C25.0376 8.55027 24.2978 8.67494 23.537 8.46136C21.9833 6.94702 19.6705 6.62802 17.7217 7.67852C16.0185 8.59519 15.0716 10.2727 15.1568 12.106C12.2687 11.7537 9.62484 10.3096 7.76758 8.06994C7.69706 7.98461 7.60697 7.91757 7.50497 7.87452C7.40298 7.83148 7.2921 7.8137 7.18176 7.8227C7.07142 7.8317 6.96489 7.86721 6.87122 7.92622C6.77755 7.98522 6.69952 8.06597 6.64375 8.16161C5.75092 9.69061 5.76008 11.4625 6.5365 12.8934C6.36832 12.9214 6.21567 13.0086 6.10609 13.1392C5.9965 13.2698 5.93718 13.4352 5.93883 13.6057C5.94117 14.3016 6.09326 14.9888 6.38477 15.6207C6.67628 16.2526 7.10038 16.8143 7.62825 17.2678C7.53456 17.3577 7.46829 17.4723 7.43714 17.5984C7.40598 17.7245 7.41123 17.8568 7.45225 17.98C7.67668 18.6495 8.04215 19.2631 8.524 19.7792C9.00584 20.2954 9.59283 20.7021 10.2453 20.972C8.88923 21.619 7.3784 21.8712 5.88567 21.6999C5.167 21.6027 4.81225 22.5689 5.43283 22.9621ZM12.4756 21.2076C12.9898 20.8125 12.7167 19.9894 12.0713 19.9756C11.521 19.9639 10.9808 19.8258 10.4924 19.5717C10.0041 19.3177 9.58081 18.9547 9.25533 18.5108C9.57239 18.4915 9.88679 18.4412 10.194 18.3604C10.8916 18.1716 10.8586 17.1651 10.15 17.023C9.53004 16.8989 8.95479 16.6106 8.48441 16.1881C8.01403 15.7656 7.66578 15.2245 7.47608 14.6214C7.82167 14.7066 8.17367 14.7543 8.52475 14.7607C9.2205 14.7644 9.48358 13.8724 8.91617 13.4994C7.63742 12.6569 7.092 11.1692 7.45317 9.77036C9.70298 12.0456 12.7244 13.3943 15.9204 13.5498C16.0265 13.5551 16.1324 13.5357 16.2297 13.4931C16.327 13.4506 16.4131 13.386 16.4813 13.3045C16.5494 13.2231 16.5977 13.1269 16.6224 13.0236C16.6471 12.9203 16.6475 12.8127 16.6235 12.7092C16.1881 10.8218 17.2423 9.49902 18.3743 8.88944C19.4945 8.28444 21.293 8.09561 22.6717 9.54211C23.0814 9.97386 24.4638 9.99036 25.1668 9.82627C24.8515 10.4203 24.3666 10.984 23.9128 11.3012C23.8176 11.3678 23.7409 11.4575 23.6897 11.5619C23.6386 11.6662 23.6147 11.7819 23.6204 11.8979C23.768 14.9092 22.646 17.903 20.5423 20.1113C18.4229 22.336 15.4923 23.5616 12.2886 23.5616C11.0144 23.5616 9.765 23.3544 8.58433 22.9548C9.996 22.6816 11.3371 22.0839 12.4756 21.2076Z" fill="white"/>
</svg>
