<svg width="84" height="92" viewBox="0 0 84 92" fill="none" xmlns="http://www.w3.org/2000/svg">
<path d="M59.1162 26.0711C59.0592 26.0711 58.9938 26.0742 58.932 26.0789C59.8117 11.5557 62.699 0.42522 40.9998 0.427368C19.4021 0.429517 22.199 11.5557 23.0787 26.0789C23.0172 26.0742 22.9574 26.0711 22.9002 26.0711C21.9895 26.0711 20.5248 26.8922 20.7293 30.3102C20.9572 34.1207 23.2904 39.0608 24.89 39.3149C27.7066 49.6672 33.56 54.5311 40.9998 54.5311C48.4217 54.5311 54.3027 49.6672 57.1193 39.3149C58.719 39.0608 61.0621 34.1207 61.29 30.3102C61.4945 26.8922 60.0272 26.0711 59.1162 26.0711Z" fill="#FAFCFC"/>
<path d="M56.4873 50.829C52.7614 59.3278 47.2061 62.7692 40.9998 62.7692C34.7938 62.7692 29.2387 59.3278 25.5127 50.829C0.500244 50.829 0.500244 91 0.500244 91C0.500244 91 41.0002 91 40.9998 91.0893L84.0002 91C84.0002 91 80.5002 50.829 56.4873 50.829Z" fill="#FAFCFC"/>
</svg>
