<svg width="31" height="34" viewBox="0 0 31 34" fill="none" xmlns="http://www.w3.org/2000/svg">
<path d="M10.4043 25.7273C10.2422 26.8649 9.67508 27.9059 8.80708 28.659C7.93907 29.4121 6.82849 29.8267 5.67933 29.8267C4.53017 29.8267 3.41959 29.4121 2.55159 28.659C1.68358 27.9059 1.11644 26.8649 0.954332 25.7273H-0.457031V9.36364C-0.457031 9.00198 -0.313363 8.65513 -0.0576315 8.3994C0.1981 8.14367 0.544946 8 0.906605 8H19.9975C20.3592 8 20.706 8.14367 20.9618 8.3994C21.2175 8.65513 21.3611 9.00198 21.3611 9.36364V12.0909H25.4521L29.543 17.6218V25.7273H26.768C26.6038 26.8633 26.0358 27.9022 25.168 28.6536C24.3002 29.4049 23.1908 29.8185 22.043 29.8185C20.8951 29.8185 19.7857 29.4049 18.9179 28.6536C18.0502 27.9022 17.4822 26.8633 17.318 25.7273H10.4043ZM18.6339 10.7273H2.27024V21.7045C2.80828 21.1553 3.47106 20.7441 4.20218 20.5061C4.93329 20.268 5.7111 20.2101 6.46939 20.3374C7.22769 20.4646 7.94402 20.7731 8.55744 21.2367C9.17085 21.7003 9.66317 22.3052 9.99251 23H17.7298C17.9589 22.5186 18.2657 22.0809 18.6339 21.7045V10.7273ZM21.3611 18.9091H26.8157V18.5205L24.0775 14.8182H21.3611V18.9091ZM22.043 27.0909C22.5856 27.0909 23.1061 26.8753 23.4898 26.4916C23.8735 26.1079 24.0891 25.5874 24.0891 25.0448C24.0891 24.5021 23.8735 23.9817 23.4898 23.5979C23.1061 23.2142 22.5856 22.9986 22.043 22.9986C21.5003 22.9986 20.9799 23.2142 20.5961 23.5979C20.2124 23.9817 19.9968 24.5021 19.9968 25.0448C19.9968 25.5874 20.2124 26.1079 20.5961 26.4916C20.9799 26.8753 21.5003 27.0909 22.043 27.0909ZM7.72479 25.0455C7.72479 24.7768 7.67188 24.5109 7.56909 24.2627C7.46629 24.0145 7.31563 23.789 7.12569 23.5991C6.93575 23.4092 6.71026 23.2585 6.46209 23.1557C6.21393 23.0529 5.94794 23 5.67933 23C5.41072 23 5.14474 23.0529 4.89657 23.1557C4.6484 23.2585 4.42291 23.4092 4.23298 23.5991C4.04304 23.789 3.89237 24.0145 3.78958 24.2627C3.68678 24.5109 3.63388 24.7768 3.63388 25.0455C3.63388 25.5879 3.84938 26.1082 4.23298 26.4918C4.61657 26.8754 5.13684 27.0909 5.67933 27.0909C6.22182 27.0909 6.74209 26.8754 7.12569 26.4918C7.50928 26.1082 7.72479 25.5879 7.72479 25.0455Z" fill="#00354B"/>
</svg>
