<svg width="27" height="30" viewBox="0 0 27 30" fill="none" xmlns="http://www.w3.org/2000/svg">
<path d="M24.5131 8.08496L15.1381 2.92871C14.9997 2.85256 14.8442 2.81262 14.6862 2.81262C14.5282 2.81262 14.3728 2.85256 14.2344 2.92871L4.85936 8.08496C4.71237 8.16589 4.58979 8.28479 4.50443 8.42924C4.41906 8.5737 4.37402 8.73842 4.37402 8.90621C4.37402 9.07401 4.41906 9.23873 4.50443 9.38318C4.58979 9.52764 4.71237 9.64653 4.85936 9.72746L13.7487 14.6165V24.6656L10.9025 23.1L9.99873 24.7415L14.2344 27.0712C14.3727 27.1475 14.5282 27.1876 14.6862 27.1876C14.8443 27.1876 14.9997 27.1475 15.1381 27.0712L24.5131 21.915C24.6602 21.8341 24.7828 21.7152 24.8682 21.5707C24.9536 21.4263 24.9987 21.2615 24.9987 21.0937V8.90621C24.9987 8.73839 24.9536 8.57365 24.8682 8.42919C24.7828 8.28473 24.6602 8.16585 24.5131 8.08496ZM14.6862 4.82059L22.1159 8.90621L14.6862 12.9918L7.25654 8.90621L14.6862 4.82059ZM23.1237 20.5396L15.6237 24.6646V14.6156L23.1237 10.4906V20.5396Z" fill="#00354B"/>
<path d="M6.24902 15H-1.25098V13.125H6.24902V15ZM8.12402 22.5H0.624023V20.625H8.12402V22.5ZM9.99902 18.75H2.49902V16.875H9.99902V18.75Z" fill="#00354B"/>
</svg>
